<mxfile host="app.diagrams.net" modified="2021-09-22T02:03:42.862Z" agent="5.0 (Windows NT 10.0; Win64; x64) AppleWebKit/537.36 (KHTML, like Gecko) Chrome/93.0.4577.82 Safari/537.36" etag="ig7iE3GHMtDqlCCM2DAo" version="14.9.5" type="github">
  <diagram id="EM6CYuOJosww6zwFT-_a" name="Page-1">
    <mxGraphModel dx="925" dy="625" grid="1" gridSize="10" guides="1" tooltips="1" connect="1" arrows="1" fold="1" page="1" pageScale="1" pageWidth="850" pageHeight="1100" math="0" shadow="0">
      <root>
        <mxCell id="0" />
        <mxCell id="1" parent="0" />
        <mxCell id="SQknO_WiFOyQ2rEXzBOz-61" value="10.0.0.0/16" style="verticalLabelPosition=bottom;verticalAlign=top;html=1;shape=mxgraph.basic.rect;fillColor2=none;strokeWidth=1;size=20;indent=5;" vertex="1" parent="1">
          <mxGeometry x="620" y="10" width="650" height="500" as="geometry" />
        </mxCell>
        <mxCell id="SQknO_WiFOyQ2rEXzBOz-3" value="" style="endArrow=classic;html=1;startArrow=none;" edge="1" parent="1">
          <mxGeometry width="50" height="50" relative="1" as="geometry">
            <mxPoint x="560" y="230" as="sourcePoint" />
            <mxPoint x="617" y="230" as="targetPoint" />
            <Array as="points" />
          </mxGeometry>
        </mxCell>
        <mxCell id="SQknO_WiFOyQ2rEXzBOz-5" value="&amp;nbsp; &amp;nbsp; &amp;nbsp; &amp;nbsp; &amp;nbsp; &amp;nbsp; &amp;nbsp; Firewall" style="image;html=1;image=img/lib/clip_art/networking/Firewall_02_128x128.png" vertex="1" parent="1">
          <mxGeometry x="630" y="188" width="80" height="80" as="geometry" />
        </mxCell>
        <mxCell id="SQknO_WiFOyQ2rEXzBOz-6" value="" style="endArrow=classic;html=1;exitX=1;exitY=0.5;exitDx=0;exitDy=0;entryX=0;entryY=0.5;entryDx=0;entryDy=0;entryPerimeter=0;startArrow=none;" edge="1" parent="1" source="SQknO_WiFOyQ2rEXzBOz-5" target="SQknO_WiFOyQ2rEXzBOz-7">
          <mxGeometry width="50" height="50" relative="1" as="geometry">
            <mxPoint x="710" y="239.5" as="sourcePoint" />
            <mxPoint x="740" y="228" as="targetPoint" />
            <Array as="points" />
          </mxGeometry>
        </mxCell>
        <mxCell id="SQknO_WiFOyQ2rEXzBOz-17" value="Client" style="text;html=1;strokeColor=none;fillColor=none;align=center;verticalAlign=middle;whiteSpace=wrap;rounded=0;" vertex="1" parent="1">
          <mxGeometry x="330" y="278" width="40" height="20" as="geometry" />
        </mxCell>
        <mxCell id="SQknO_WiFOyQ2rEXzBOz-18" value="" style="points=[[0.13,0.02,0],[0.5,0,0],[0.87,0.02,0],[0.885,0.4,0],[0.985,0.985,0],[0.5,1,0],[0.015,0.985,0],[0.115,0.4,0]];verticalLabelPosition=bottom;html=1;verticalAlign=top;aspect=fixed;align=center;pointerEvents=1;shape=mxgraph.cisco19.laptop;fillColor=#005073;strokeColor=none;" vertex="1" parent="1">
          <mxGeometry x="310" y="216" width="80" height="56" as="geometry" />
        </mxCell>
        <mxCell id="SQknO_WiFOyQ2rEXzBOz-50" style="edgeStyle=orthogonalEdgeStyle;rounded=0;orthogonalLoop=1;jettySize=auto;html=1;entryX=1;entryY=0.75;entryDx=0;entryDy=0;" edge="1" parent="1" source="SQknO_WiFOyQ2rEXzBOz-21" target="SQknO_WiFOyQ2rEXzBOz-14">
          <mxGeometry relative="1" as="geometry">
            <Array as="points">
              <mxPoint x="1100" y="398" />
              <mxPoint x="1100" y="303" />
            </Array>
          </mxGeometry>
        </mxCell>
        <mxCell id="SQknO_WiFOyQ2rEXzBOz-19" value="" style="group;movable=0;resizable=0;rotatable=0;deletable=0;editable=0;connectable=0;" vertex="1" connectable="0" parent="1">
          <mxGeometry x="919.5" y="126" width="110.5" height="274" as="geometry" />
        </mxCell>
        <mxCell id="SQknO_WiFOyQ2rEXzBOz-51" style="edgeStyle=orthogonalEdgeStyle;rounded=0;orthogonalLoop=1;jettySize=auto;html=1;entryX=1;entryY=0.5;entryDx=0;entryDy=0;" edge="1" parent="1" source="SQknO_WiFOyQ2rEXzBOz-21" target="SQknO_WiFOyQ2rEXzBOz-14">
          <mxGeometry relative="1" as="geometry">
            <Array as="points">
              <mxPoint x="1170" y="398" />
              <mxPoint x="1170" y="228" />
            </Array>
          </mxGeometry>
        </mxCell>
        <mxCell id="SQknO_WiFOyQ2rEXzBOz-52" style="edgeStyle=orthogonalEdgeStyle;rounded=0;orthogonalLoop=1;jettySize=auto;html=1;entryX=1;entryY=0.25;entryDx=0;entryDy=0;" edge="1" parent="1" source="SQknO_WiFOyQ2rEXzBOz-21" target="SQknO_WiFOyQ2rEXzBOz-14">
          <mxGeometry relative="1" as="geometry">
            <Array as="points">
              <mxPoint x="1240" y="398" />
              <mxPoint x="1240" y="153" />
            </Array>
          </mxGeometry>
        </mxCell>
        <mxCell id="SQknO_WiFOyQ2rEXzBOz-21" value="Jumpbox &lt;br&gt;Ansible&lt;br&gt;52.188.0.120&lt;br&gt;10.0.0.4" style="aspect=fixed;html=1;points=[];align=center;image;fontSize=12;image=img/lib/azure2/compute/VM_Images_Classic.svg;" vertex="1" parent="1">
          <mxGeometry x="635.5" y="360" width="69" height="64" as="geometry" />
        </mxCell>
        <mxCell id="SQknO_WiFOyQ2rEXzBOz-40" value="" style="group" vertex="1" connectable="0" parent="1">
          <mxGeometry x="790" y="78" width="250" height="300" as="geometry" />
        </mxCell>
        <mxCell id="SQknO_WiFOyQ2rEXzBOz-7" value="Load Balancer &lt;br&gt;40.88.128.184" style="points=[[0.015,0.015,0],[0.985,0.015,0],[0.985,0.985,0],[0.015,0.985,0],[0.25,0,0],[0.5,0,0],[0.75,0,0],[1,0.25,0],[1,0.5,0],[1,0.75,0],[0.75,1,0],[0.5,1,0],[0.25,1,0],[0,0.75,0],[0,0.5,0],[0,0.25,0]];verticalLabelPosition=bottom;html=1;verticalAlign=top;aspect=fixed;align=center;pointerEvents=1;shape=mxgraph.cisco19.rect;prIcon=load_balancer;fillColor=#FAFAFA;strokeColor=#005073;" vertex="1" parent="SQknO_WiFOyQ2rEXzBOz-40">
          <mxGeometry y="125" width="64" height="50" as="geometry" />
        </mxCell>
        <mxCell id="SQknO_WiFOyQ2rEXzBOz-8" value="" style="endArrow=classic;html=1;entryX=0;entryY=0.5;entryDx=0;entryDy=0;" edge="1" parent="SQknO_WiFOyQ2rEXzBOz-40" target="SQknO_WiFOyQ2rEXzBOz-14">
          <mxGeometry width="50" height="50" relative="1" as="geometry">
            <mxPoint x="64" y="149.5" as="sourcePoint" />
            <mxPoint x="124" y="150" as="targetPoint" />
            <Array as="points" />
          </mxGeometry>
        </mxCell>
        <mxCell id="SQknO_WiFOyQ2rEXzBOz-20" value="" style="group" vertex="1" connectable="0" parent="SQknO_WiFOyQ2rEXzBOz-40">
          <mxGeometry x="130" width="120" height="300" as="geometry" />
        </mxCell>
        <mxCell id="SQknO_WiFOyQ2rEXzBOz-14" value="" style="rounded=0;whiteSpace=wrap;html=1;movable=1;resizable=1;rotatable=1;deletable=1;editable=1;connectable=1;" vertex="1" parent="SQknO_WiFOyQ2rEXzBOz-20">
          <mxGeometry width="120" height="300" as="geometry" />
        </mxCell>
        <mxCell id="SQknO_WiFOyQ2rEXzBOz-9" value="" style="aspect=fixed;html=1;points=[];align=center;image;fontSize=12;image=img/lib/azure2/compute/VM_Images_Classic.svg;movable=1;resizable=1;rotatable=1;deletable=1;editable=1;connectable=1;" vertex="1" parent="SQknO_WiFOyQ2rEXzBOz-20">
          <mxGeometry x="25.5" y="26" width="69" height="64" as="geometry" />
        </mxCell>
        <mxCell id="SQknO_WiFOyQ2rEXzBOz-10" value="" style="aspect=fixed;html=1;points=[];align=center;image;fontSize=12;image=img/lib/azure2/compute/VM_Images_Classic.svg;movable=1;resizable=1;rotatable=1;deletable=1;editable=1;connectable=1;" vertex="1" parent="SQknO_WiFOyQ2rEXzBOz-20">
          <mxGeometry x="25.5" y="115" width="69" height="64" as="geometry" />
        </mxCell>
        <mxCell id="SQknO_WiFOyQ2rEXzBOz-12" value="" style="aspect=fixed;html=1;points=[];align=center;image;fontSize=12;image=img/lib/azure2/compute/VM_Images_Classic.svg;movable=1;resizable=1;rotatable=1;deletable=1;editable=1;connectable=1;" vertex="1" parent="SQknO_WiFOyQ2rEXzBOz-20">
          <mxGeometry x="25.5" y="210" width="69" height="64" as="geometry" />
        </mxCell>
        <mxCell id="SQknO_WiFOyQ2rEXzBOz-15" value="Virtual Machines" style="text;html=1;strokeColor=none;fillColor=none;align=center;verticalAlign=middle;whiteSpace=wrap;rounded=0;movable=1;resizable=1;rotatable=1;deletable=1;editable=1;connectable=1;" vertex="1" parent="SQknO_WiFOyQ2rEXzBOz-20">
          <mxGeometry x="5" y="280" width="110" height="20" as="geometry" />
        </mxCell>
        <mxCell id="SQknO_WiFOyQ2rEXzBOz-38" value="" style="endArrow=classic;html=1;exitX=0.985;exitY=0.985;exitDx=0;exitDy=0;exitPerimeter=0;entryX=0;entryY=0.75;entryDx=0;entryDy=0;" edge="1" parent="SQknO_WiFOyQ2rEXzBOz-40" source="SQknO_WiFOyQ2rEXzBOz-7" target="SQknO_WiFOyQ2rEXzBOz-14">
          <mxGeometry width="50" height="50" relative="1" as="geometry">
            <mxPoint x="74" y="159.5" as="sourcePoint" />
            <mxPoint x="134" y="160" as="targetPoint" />
            <Array as="points" />
          </mxGeometry>
        </mxCell>
        <mxCell id="SQknO_WiFOyQ2rEXzBOz-39" value="" style="endArrow=classic;html=1;entryX=0;entryY=0.25;entryDx=0;entryDy=0;exitX=0.985;exitY=0.015;exitDx=0;exitDy=0;exitPerimeter=0;" edge="1" parent="SQknO_WiFOyQ2rEXzBOz-40" source="SQknO_WiFOyQ2rEXzBOz-7" target="SQknO_WiFOyQ2rEXzBOz-14">
          <mxGeometry width="50" height="50" relative="1" as="geometry">
            <mxPoint x="70" y="100" as="sourcePoint" />
            <mxPoint x="136" y="100.5" as="targetPoint" />
            <Array as="points" />
          </mxGeometry>
        </mxCell>
        <mxCell id="SQknO_WiFOyQ2rEXzBOz-41" value="Internet" style="outlineConnect=0;dashed=0;verticalLabelPosition=bottom;verticalAlign=top;align=center;html=1;shape=mxgraph.aws3.internet_3;fillColor=#D2D3D3;gradientColor=none;" vertex="1" parent="1">
          <mxGeometry x="440" y="188" width="130" height="84" as="geometry" />
        </mxCell>
        <mxCell id="SQknO_WiFOyQ2rEXzBOz-44" value="HTTP (80)" style="text;html=1;strokeColor=none;fillColor=none;align=center;verticalAlign=middle;whiteSpace=wrap;rounded=0;" vertex="1" parent="1">
          <mxGeometry x="730" y="200" width="40" height="20" as="geometry" />
        </mxCell>
        <mxCell id="SQknO_WiFOyQ2rEXzBOz-46" value="SSH (22)" style="text;html=1;strokeColor=none;fillColor=none;align=center;verticalAlign=middle;whiteSpace=wrap;rounded=0;" vertex="1" parent="1">
          <mxGeometry x="680" y="310" width="40" height="20" as="geometry" />
        </mxCell>
        <mxCell id="SQknO_WiFOyQ2rEXzBOz-47" value="" style="endArrow=classic;html=1;exitX=0.5;exitY=1;exitDx=0;exitDy=0;entryX=0.48;entryY=-0.05;entryDx=0;entryDy=0;entryPerimeter=0;startArrow=none;" edge="1" parent="1" source="SQknO_WiFOyQ2rEXzBOz-5" target="SQknO_WiFOyQ2rEXzBOz-21">
          <mxGeometry width="50" height="50" relative="1" as="geometry">
            <mxPoint x="720" y="238" as="sourcePoint" />
            <mxPoint x="800" y="238" as="targetPoint" />
            <Array as="points" />
          </mxGeometry>
        </mxCell>
        <mxCell id="SQknO_WiFOyQ2rEXzBOz-54" value="SSH (22)" style="text;html=1;strokeColor=none;fillColor=none;align=center;verticalAlign=middle;whiteSpace=wrap;rounded=0;" vertex="1" parent="1">
          <mxGeometry x="839.5" y="404" width="80" height="20" as="geometry" />
        </mxCell>
        <mxCell id="SQknO_WiFOyQ2rEXzBOz-56" value="Web 1&lt;br&gt;10.0.0.5" style="text;html=1;align=center;verticalAlign=middle;resizable=0;points=[];autosize=1;strokeColor=none;" vertex="1" parent="1">
          <mxGeometry x="1040" y="340" width="60" height="30" as="geometry" />
        </mxCell>
        <mxCell id="SQknO_WiFOyQ2rEXzBOz-57" value="Web 2&lt;br&gt;10.0.0.6" style="text;html=1;align=center;verticalAlign=middle;resizable=0;points=[];autosize=1;strokeColor=none;" vertex="1" parent="1">
          <mxGeometry x="1110" y="248" width="60" height="30" as="geometry" />
        </mxCell>
        <mxCell id="SQknO_WiFOyQ2rEXzBOz-58" value="Web 3&lt;br&gt;10.0.0.7" style="text;html=1;align=center;verticalAlign=middle;resizable=0;points=[];autosize=1;strokeColor=none;" vertex="1" parent="1">
          <mxGeometry x="1180" y="158" width="60" height="30" as="geometry" />
        </mxCell>
        <mxCell id="SQknO_WiFOyQ2rEXzBOz-62" value="" style="endArrow=classic;html=1;startArrow=none;exitX=0.885;exitY=0.4;exitDx=0;exitDy=0;exitPerimeter=0;entryX=0;entryY=0.7;entryDx=0;entryDy=0;entryPerimeter=0;" edge="1" parent="1" source="SQknO_WiFOyQ2rEXzBOz-18" target="SQknO_WiFOyQ2rEXzBOz-41">
          <mxGeometry width="50" height="50" relative="1" as="geometry">
            <mxPoint x="383" y="300" as="sourcePoint" />
            <mxPoint x="440" y="300" as="targetPoint" />
            <Array as="points" />
          </mxGeometry>
        </mxCell>
        <mxCell id="SQknO_WiFOyQ2rEXzBOz-63" value="Docker" style="text;html=1;align=center;verticalAlign=middle;resizable=0;points=[];autosize=1;strokeColor=none;" vertex="1" parent="1">
          <mxGeometry x="1115" y="278" width="50" height="20" as="geometry" />
        </mxCell>
        <mxCell id="SQknO_WiFOyQ2rEXzBOz-64" value="Docker" style="text;html=1;align=center;verticalAlign=middle;resizable=0;points=[];autosize=1;strokeColor=none;" vertex="1" parent="1">
          <mxGeometry x="1045" y="370" width="50" height="20" as="geometry" />
        </mxCell>
        <mxCell id="SQknO_WiFOyQ2rEXzBOz-65" value="Docker" style="text;html=1;align=center;verticalAlign=middle;resizable=0;points=[];autosize=1;strokeColor=none;" vertex="1" parent="1">
          <mxGeometry x="1185" y="188" width="50" height="20" as="geometry" />
        </mxCell>
      </root>
    </mxGraphModel>
  </diagram>
</mxfile>
